<svg width="72" height="72" viewBox="0 0 72 72" fill="none" xmlns="http://www.w3.org/2000/svg">
<path d="M2.91602 43.9349C2.91602 40.5449 3.57008 37.1879 4.84096 34.056C6.11185 30.9239 7.97453 28.0781 10.3228 25.6809C12.671 23.2838 15.4587 21.3822 18.5268 20.0849C21.595 18.7877 24.8833 18.1199 28.2043 18.1199V43.9349H2.91602Z" fill="#3C8AFF"/>
<path d="M2.91602 43.9348C2.91602 47.325 3.57008 50.6818 4.84096 53.814C6.11185 56.946 7.97453 59.7918 10.3228 62.1889C12.671 64.5861 15.4587 66.4876 18.5268 67.785C21.595 69.0823 24.8833 69.75 28.2043 69.75V43.9348H2.91602Z" fill="#A4A5A6"/>
<path d="M53.492 43.9348C53.492 47.325 52.8384 50.6818 51.5677 53.814C50.2968 56.946 48.4342 59.7918 46.0855 62.1889C43.7373 64.5861 40.9496 66.4876 37.8813 67.785C34.8134 69.0823 31.5249 69.75 28.2041 69.75V43.9348H53.492Z" fill="#E6E6FA"/>
<path d="M69.0842 21.633C69.0842 32.3379 60.5829 41.016 50.0967 41.016H31.1094V21.633C31.1094 10.9281 39.6104 2.25 50.0967 2.25C60.5829 2.25 69.0842 10.9281 69.0842 21.633Z" fill="#0066FF"/>
</svg>
