<svg width="97" height="97" viewBox="0 0 97 97" fill="none" xmlns="http://www.w3.org/2000/svg">
<path d="M48.7273 96.1814C75.237 96.1814 96.7273 74.691 96.7273 48.1814C96.7273 21.6717 75.237 0.181396 48.7273 0.181396C22.2176 0.181396 0.727295 21.6717 0.727295 48.1814C0.727295 74.691 22.2176 96.1814 48.7273 96.1814Z" fill="#9F82BB"/>
<path fill-rule="evenodd" clip-rule="evenodd" d="M36.855 60.2679L61.5649 60.4559V80.5227L36.855 80.3347V60.2679Z" fill="#F9DCA4"/>
<path fill-rule="evenodd" clip-rule="evenodd" d="M83.799 80.9477C79.3138 85.761 73.8845 89.598 67.85 92.2192C61.8156 94.8403 55.3055 96.1893 48.7264 96.1819C46.7339 96.1818 44.7434 96.0589 42.766 95.8138C36.7018 94.9448 30.8344 93.0295 25.4254 90.1532C20.8605 87.6125 16.7389 84.3466 13.2219 80.4833L15.2149 75.6678L36.846 66.018C36.846 73.0627 38.881 81.5831 48.4017 81.7276C60.161 81.9046 61.559 73.2227 61.559 65.9606L81.427 75.719L83.799 80.9477Z" fill="#434955"/>
<path opacity="0.11" fill-rule="evenodd" clip-rule="evenodd" d="M61.5708 60.4193V65.9805C61.5661 66.5945 61.5147 67.2073 61.417 67.8135C61.2948 68.5617 61.089 69.2938 60.8034 69.996C52.4555 76.4644 39.1506 71.158 37.0271 60.1086L61.5708 60.4193Z" fill="black"/>
<path fill-rule="evenodd" clip-rule="evenodd" d="M49.0802 13.2805C82.1381 13.2805 69.2557 68.0626 49.0802 68.0626C30.0262 68.0626 16.0223 13.2805 49.0802 13.2805Z" fill="#FFE8BE"/>
<path fill-rule="evenodd" clip-rule="evenodd" d="M29.2537 37.5351C24.4848 39.6151 28.5392 49.4745 31.5403 49.431C30.2955 45.5734 29.5276 41.5794 29.2537 37.5351ZM69.2926 37.5336C74.0615 39.6136 70.0071 49.4745 67.0075 49.4295C68.2513 45.5722 69.0187 41.5772 69.2926 37.5336Z" fill="#F9DCA4"/>
<path fill-rule="evenodd" clip-rule="evenodd" d="M36.8484 66.0184C29.6437 67.73 22.7318 70.4981 16.3373 74.2328C13.782 75.7008 13.8441 77.9594 14.4158 78.778C16.4601 81.7015 23.0387 77.9672 25.4278 76.9761C29.5105 75.2189 33.6795 73.6692 37.9187 72.333C37.0547 70.3462 36.6874 68.179 36.8484 66.0184Z" fill="#677079"/>
<path fill-rule="evenodd" clip-rule="evenodd" d="M49.2073 94.3564C44.5052 90.9545 36.9153 81.6652 36.8469 70.7246C36.8469 82.6547 61.5615 82.6081 61.5615 70.678C60.5487 83.1611 53.8209 91.1502 49.2073 94.3564Z" fill="white"/>
<path fill-rule="evenodd" clip-rule="evenodd" d="M61.7414 65.6688C68.3813 67.6079 74.7459 70.3883 80.6804 73.9422C83.2358 75.4102 83.1736 77.6672 82.602 78.4859C80.5577 81.4094 73.9791 77.675 71.5899 76.6855C66.9608 74.7671 62.0303 72.2273 60.6696 71.9834C61.5341 69.9967 61.902 67.8295 61.7414 65.6688ZM36.8529 63.7006C36.6789 75.3434 45.7989 85.7744 52.4723 95.0482C52.275 94.7702 52.6742 95.3278 52.4723 95.0482C51.5822 94.997 51.2606 95.7317 50.3301 95.5841C42.0598 94.2746 32.6478 89.4249 30.1655 85.5337C29.6948 84.7973 35.3538 79.4568 35.0602 78.6459C34.9018 78.2047 30.1329 78.795 27.4206 79.6509C27.2218 79.7131 27.2 79.2812 27.155 79.0777C25.8983 73.3115 28.0762 66.8447 36.8529 63.7006Z" fill="#677079"/>
<path fill-rule="evenodd" clip-rule="evenodd" d="M49.7081 93.5178C49.7817 93.5259 49.8529 93.5489 49.9174 93.5852C49.9819 93.6216 50.0384 93.6707 50.0834 93.7294C50.1284 93.7882 50.1611 93.8555 50.1794 93.9272C50.1977 93.999 50.2013 94.0737 50.19 94.1469C50.1786 94.22 50.1526 94.2901 50.1134 94.353C50.0742 94.4158 50.0228 94.47 49.9621 94.5124C49.9014 94.5548 49.8327 94.5845 49.7602 94.5996C49.6878 94.6148 49.613 94.6151 49.5404 94.6006C45.6804 93.9634 41.9287 92.7885 38.3947 91.1101C35.6641 89.9788 33.2738 88.1585 31.4573 85.827C31.0378 85.1668 32.3691 83.4565 33.7718 81.6639C34.7614 80.5542 35.6179 79.3327 36.3241 78.0242C35.491 77.9324 34.6512 77.9173 33.8153 77.9792C32.1986 78.0145 30.5892 78.2091 29.0107 78.5602C28.8398 78.6021 28.6705 78.6503 28.5074 78.7L28.4701 78.7109C28.3225 78.7491 28.1661 78.7332 28.0293 78.6659C27.8924 78.5986 27.7843 78.4845 27.7244 78.3443C27.5385 77.9449 27.4279 77.5146 27.3982 77.0751C27.3302 76.4017 27.3276 75.7234 27.3905 75.0495C27.6239 72.5595 28.5707 70.1898 30.1172 68.2244C31.6638 66.2591 33.7445 64.7816 36.1097 63.9691C36.2448 63.9149 36.3959 63.9167 36.5298 63.9739C36.6637 64.0311 36.7693 64.1392 36.8235 64.2743C36.8777 64.4095 36.8759 64.5606 36.8187 64.6945C36.7614 64.8283 36.6534 64.934 36.5182 64.9881C34.3441 65.7285 32.4299 67.0806 31.0053 68.8821C29.5807 70.6836 28.7063 72.858 28.4872 75.1443C28.4297 75.7467 28.4308 76.3533 28.4903 76.9555C28.5099 77.1504 28.5415 77.3439 28.585 77.5349L28.7481 77.493C30.4048 77.1248 32.0938 76.9208 33.7905 76.8841C34.9372 76.7513 36.0985 76.9322 37.1505 77.4076C37.2381 77.4639 37.3076 77.5443 37.3509 77.639C37.3607 77.6596 37.369 77.6809 37.3757 77.7027L37.3881 77.7446C37.5885 78.5524 36.074 80.4942 34.634 82.338C33.878 83.3002 33.1271 84.2664 32.3815 85.2367C34.0916 87.3939 36.3268 89.0761 38.8732 90.1221C42.3086 91.7544 45.9556 92.8974 49.7081 93.5178Z" fill="#434955"/>
<path fill-rule="evenodd" clip-rule="evenodd" d="M61.5619 63.7006C61.7421 75.6944 51.6404 86.5511 44.925 96.0315C60.3922 96.2645 65.2093 88.9558 68.2509 85.5321C68.8303 84.8797 63.0625 79.4568 63.3561 78.6459C63.5146 78.2047 68.2835 78.795 70.9942 79.6509C71.1946 79.7131 71.2163 79.2828 71.2614 79.0777C72.5181 73.3115 70.3402 66.8447 61.5619 63.7006Z" fill="#677079"/>
<path fill-rule="evenodd" clip-rule="evenodd" d="M46.2588 95.2486C46.1138 95.236 45.9797 95.1664 45.886 95.055C45.7924 94.9435 45.7468 94.7995 45.7594 94.6544C45.7719 94.5094 45.8416 94.3753 45.953 94.2817C46.0645 94.188 46.2085 94.1425 46.3535 94.155C50.0814 94.3863 53.8066 93.6618 57.1761 92.0502C60.6815 90.5924 63.7447 88.243 66.0615 85.2354C66.0646 85.2292 64.9648 83.8203 63.8091 82.3383C62.3691 80.4929 60.8545 78.5511 61.0549 77.7434L61.0658 77.703C61.0732 77.6807 61.082 77.6589 61.0922 77.6377C61.1356 77.5427 61.2051 77.4619 61.2926 77.4047C62.3443 76.9303 63.5049 76.7499 64.651 76.8828C66.3482 76.9195 68.0377 77.1235 69.6949 77.4917L69.8565 77.5337C69.9001 77.3427 69.9317 77.1492 69.9512 76.9543C70.0107 76.352 70.0118 75.7454 69.9543 75.143C69.7349 72.857 68.8604 70.683 67.4358 68.8817C66.0113 67.0805 64.0972 65.7287 61.9233 64.9884C61.8563 64.9615 61.7954 64.9217 61.7439 64.8712C61.6924 64.8207 61.6513 64.7606 61.623 64.6942C61.5948 64.6279 61.5798 64.5566 61.5791 64.4845C61.5784 64.4123 61.5919 64.3408 61.6188 64.2739C61.6457 64.207 61.6856 64.146 61.736 64.0945C61.7865 64.043 61.8467 64.0019 61.913 63.9736C61.9794 63.9454 62.0506 63.9304 62.1228 63.9297C62.1949 63.929 62.2664 63.9425 62.3334 63.9694C64.6981 64.782 66.7783 66.2594 68.3245 68.2244C69.8707 70.1894 70.8174 72.5587 71.051 75.0482C71.1139 75.7221 71.1113 76.4005 71.0433 77.0739C71.0136 77.5134 70.903 77.9436 70.717 78.343C70.6572 78.4832 70.5491 78.5974 70.4122 78.6646C70.2754 78.7319 70.119 78.7479 69.9714 78.7096L69.9341 78.7003C69.7684 78.648 69.6011 78.6008 69.4324 78.5589C67.8533 78.2083 66.2434 78.0142 64.6262 77.9795C63.7909 77.9172 62.9516 77.9318 62.119 78.023C62.8253 79.3317 63.6824 80.5532 64.6728 81.6626C66.0739 83.4583 67.4068 85.1671 66.9858 85.8257C64.5525 89.0117 61.3258 91.5035 57.6281 93.0521C54.0874 94.7408 50.1737 95.4979 46.2588 95.2486Z" fill="#434955"/>
<path d="M63.0357 86.2952C63.7555 86.2952 64.339 85.7117 64.339 84.9919C64.339 84.2721 63.7555 83.6886 63.0357 83.6886C62.3159 83.6886 61.7324 84.2721 61.7324 84.9919C61.7324 85.7117 62.3159 86.2952 63.0357 86.2952Z" fill="#E6E6E6"/>
<path d="M35.5636 86.2952C36.2833 86.2952 36.8669 85.7117 36.8669 84.9919C36.8669 84.2721 36.2833 83.6886 35.5636 83.6886C34.8438 83.6886 34.2603 84.2721 34.2603 84.9919C34.2603 85.7117 34.8438 86.2952 35.5636 86.2952Z" fill="#E6E6E6"/>
<path d="M30.7332 76.1607C31.453 76.1607 32.0365 75.5772 32.0365 74.8574C32.0365 74.1376 31.453 73.5541 30.7332 73.5541C30.0134 73.5541 29.4299 74.1376 29.4299 74.8574C29.4299 75.5772 30.0134 76.1607 30.7332 76.1607Z" fill="#E6E6E6"/>
<path d="M67.8358 76.1607C68.5556 76.1607 69.1391 75.5772 69.1391 74.8574C69.1391 74.1376 68.5556 73.5541 67.8358 73.5541C67.116 73.5541 66.5325 74.1376 66.5325 74.8574C66.5325 75.5772 67.116 76.1607 67.8358 76.1607Z" fill="#E6E6E6"/>
<path fill-rule="evenodd" clip-rule="evenodd" d="M27.1907 40.2305C27.3331 39.5416 27.6437 38.8985 28.0948 38.3587C28.0565 42.3186 29.2628 46.1906 31.5433 49.4282C29.0967 26.2437 33.9154 22.1723 33.9154 22.1723C33.9154 22.1723 48.3899 33.0942 64.4691 22.1427C64.4691 22.1427 69.5627 26.2422 67.1161 49.4266C69.5627 45.815 70.1142 42.7361 70.2913 38.2499C70.8912 38.8365 71.282 39.6038 71.4035 40.434C71.4035 40.434 74.1592 26.3447 68.0575 18.5606C68.6105 17.686 71.4361 15.2379 72.3091 15.2969C73.1821 15.356 68.581 13.4328 62.9888 14.3649C64.3167 12.966 65.8732 11.8035 67.5915 10.9272C64.7529 10.377 61.8545 10.2005 58.9701 10.4022C60.5886 9.1839 62.3491 8.16674 64.2128 7.37304C59.7197 6.0105 54.9323 5.95017 50.4062 7.19906C52.022 5.2921 53.9529 3.67644 56.115 2.42236C56.115 2.42236 41.3779 3.2379 33.6886 14.1894C33.1866 12.4495 33.2387 10.5965 33.8377 8.8876C33.8377 8.8876 24.1088 18.02 27.1907 40.2305ZM49.2878 72.1715C39.3196 67.5967 43.3538 61.1097 43.3538 61.1097C43.4448 61.83 43.7384 62.5097 44.2004 63.0698C44.6623 63.63 45.2737 64.0475 45.9635 64.274C46.6872 62.7044 47.8396 61.3712 49.2878 60.4278C50.6451 61.4519 51.7569 62.7659 52.5422 64.274C53.2319 64.0473 53.8432 63.6297 54.3051 63.0697C54.767 62.5096 55.0606 61.83 55.1519 61.1097C55.1519 61.1097 59.2528 67.5967 49.2878 72.1715Z" fill="#464449"/>
<path fill-rule="evenodd" clip-rule="evenodd" d="M33.1761 37.8397L33.2739 37.8164C44.3217 35.0716 46.8864 37.8568 47.4829 39.2813C48.6463 38.9353 49.886 38.9407 51.0464 39.2968C51.6304 37.877 54.1718 35.0607 65.2631 37.8164L65.3594 37.8397L67.0743 38.2949C67.2173 38.3347 67.3387 38.4297 67.4118 38.5589C67.4849 38.6881 67.5038 38.841 67.4643 38.9842C67.4248 39.1273 67.3302 39.2489 67.2012 39.3223C67.0722 39.3958 66.9193 39.4151 66.7761 39.376L65.7772 39.1057C65.8083 41.3644 65.2864 47.7007 58.5229 48.1853C51.3151 48.6995 50.8569 42.1551 50.8615 40.4168C49.8308 40.0593 48.711 40.0516 47.6755 40.3951C47.6833 42.1022 47.2499 48.7011 40.0126 48.1853C33.2491 47.7007 32.7271 41.3644 32.7582 39.1057L31.7609 39.376C31.6899 39.3957 31.6158 39.4012 31.5426 39.3922C31.4695 39.3833 31.3989 39.36 31.3348 39.3237C31.2707 39.2874 31.2143 39.2389 31.169 39.1808C31.1236 39.1228 31.0901 39.0563 31.0704 38.9853C31.0508 38.9144 31.0453 38.8402 31.0542 38.7671C31.0632 38.6939 31.0865 38.6233 31.1228 38.5592C31.1591 38.4951 31.2076 38.4387 31.2657 38.3934C31.3237 38.348 31.3901 38.3145 31.4611 38.2949L33.1761 37.8397Z" fill="#677079"/>
<path opacity="0.5" fill-rule="evenodd" clip-rule="evenodd" d="M56.852 37.2813C58.1073 37.1315 59.3754 37.1216 60.6329 37.2518L56.1265 47.3691C54.9855 47.0533 53.9618 46.4107 53.1813 45.5206L56.852 37.2813ZM38.8698 36.7842C40.2469 36.6199 41.6379 36.609 43.0174 36.7516L38.0729 47.846C36.8226 47.4997 35.7006 46.7957 34.845 45.8204L38.8683 36.7858L38.8698 36.7842ZM44.4465 37.0235L39.4042 48.1225C39.601 48.1484 39.8039 48.1691 40.0131 48.1846C40.1405 48.1924 40.2663 48.2002 40.389 48.2048L45.332 37.3279C45.0439 37.2075 44.7481 37.1063 44.4465 37.025V37.0235ZM61.9378 37.5004L57.3397 47.6208C57.5189 47.6446 57.7037 47.6632 57.8943 47.6767C58.0108 47.6844 58.1257 47.6922 58.2376 47.6953L62.7456 37.7769C62.4826 37.6673 62.2127 37.575 61.9378 37.5004Z" fill="#E6E6E6"/>
<path fill-rule="evenodd" clip-rule="evenodd" d="M33.1761 37.8397C33.2079 37.829 33.2407 37.8212 33.2739 37.8164C44.3217 35.0716 46.8864 37.8568 47.4829 39.2813C48.6463 38.9353 49.886 38.9407 51.0464 39.2968C51.6304 37.877 54.1718 35.0607 65.2631 37.8164C65.2958 37.8211 65.3281 37.829 65.3594 37.8397C65.9108 37.978 66.4809 38.1287 67.0743 38.2949C67.2173 38.3347 67.3387 38.4297 67.4118 38.5589C67.4849 38.6881 67.5038 38.841 67.4643 38.9842C67.4248 39.1273 67.3302 39.2489 67.2012 39.3223C67.0722 39.3958 66.9193 39.4151 66.7761 39.376C66.4343 39.2813 66.1035 39.1912 65.7772 39.1057C65.8083 41.3644 65.2864 47.7007 58.5229 48.1853C51.3151 48.6995 50.8569 42.1551 50.8615 40.4168C49.8308 40.0593 48.711 40.0516 47.6755 40.3951C47.6833 42.1022 47.2499 48.7011 40.0126 48.1853C33.2491 47.7007 32.7271 41.3644 32.7582 39.1057C32.432 39.1912 32.1011 39.2813 31.7609 39.376C31.6899 39.3957 31.6158 39.4012 31.5426 39.3922C31.4695 39.3833 31.3989 39.36 31.3348 39.3237C31.2707 39.2874 31.2143 39.2389 31.169 39.1808C31.1236 39.1228 31.0901 39.0563 31.0704 38.9853C31.0508 38.9144 31.0453 38.8402 31.0542 38.7671C31.0632 38.6939 31.0865 38.6233 31.1228 38.5592C31.1591 38.4951 31.2076 38.4387 31.2657 38.3934C31.3237 38.348 31.3901 38.3145 31.4611 38.2949C32.0545 38.1287 32.6246 37.9764 33.1761 37.8397ZM58.4437 47.0638C64.5905 46.6242 64.7194 40.4354 64.6479 38.8184C52.5112 35.8436 52.0157 39.71 51.9955 40.0222L51.9924 40.058C51.9924 40.0797 51.4456 47.5624 58.4437 47.0638ZM33.2739 37.8164L33.4153 37.8133C33.3677 37.8078 33.3197 37.8089 33.2724 37.8164H33.2739ZM33.8891 38.8168C33.8161 40.4354 33.9466 46.6242 40.0918 47.0638C47.0899 47.5624 46.5431 40.0797 46.5415 40.058V40.0222C46.5198 39.71 46.0242 35.8421 33.8891 38.8168Z" fill="#464449"/>
</svg>
