<svg width="97" height="97" viewBox="0 0 97 97" fill="none" xmlns="http://www.w3.org/2000/svg">
<path d="M48.9092 96.1814C75.4189 96.1814 96.9092 74.6911 96.9092 48.1814C96.9092 21.6717 75.4189 0.181396 48.9092 0.181396C22.3995 0.181396 0.90918 21.6717 0.90918 48.1814C0.90918 74.6911 22.3995 96.1814 48.9092 96.1814Z" fill="#FFC200"/>
<path fill-rule="evenodd" clip-rule="evenodd" d="M39.5271 61.734L58.6354 61.9142V81.0039L39.5271 80.8237V61.734Z" fill="#F9DCA4"/>
<path opacity="0.11" fill-rule="evenodd" clip-rule="evenodd" d="M58.6386 61.8805V67.1714C58.6588 67.7758 58.6385 68.3809 58.578 68.9826C58.4956 69.6273 56.5368 68.8832 56.3038 69.5853C49.5574 75.0595 40.3923 68.4358 39.5271 64.3302L58.6386 61.8805Z" fill="black"/>
<path fill-rule="evenodd" clip-rule="evenodd" d="M48.9622 17.0361C80.4107 17.0361 68.1544 69.1511 48.9622 69.1511C30.834 69.1511 17.5137 17.0361 48.9622 17.0361Z" fill="#FFE8BE"/>
<path fill-rule="evenodd" clip-rule="evenodd" d="M30.1389 40.3127C25.7645 42.2218 29.4834 51.2641 32.236 51.2237C31.0946 47.6859 30.3903 44.0216 30.1389 40.3127ZM68.1878 40.2692C72.5607 42.1767 68.8869 51.2641 66.1374 51.2237C67.264 47.6692 67.9526 43.9905 68.1878 40.2692Z" fill="#F9DCA4"/>
<path fill-rule="evenodd" clip-rule="evenodd" d="M48.938 17.3828C61.8281 17.3828 67.2292 26.5479 67.5601 37.1358C68.0137 51.6321 59.1749 68.8049 48.9395 68.8049C39.2463 68.8049 30.1636 51.0449 30.7151 36.4011C31.1003 26.1253 36.3508 17.3844 48.9395 17.3844L48.938 17.3828Z" fill="#FFE8BE"/>
<path fill-rule="evenodd" clip-rule="evenodd" d="M31.312 47.1027C31.312 47.1027 31.6491 33.7714 43.6305 33.265C55.6118 32.7586 58.1439 26.3462 58.1439 26.3462C60.6308 31.5742 64.048 36.3062 68.2285 40.3112C77.2475 23.3481 60.5081 14.8697 60.5081 14.8697C60.5081 14.8697 60.8732 5.01024 48.6945 5.16714C36.5159 5.32403 38.5679 15.5438 38.5679 15.5438C38.5679 15.5438 20.1726 25.5011 31.312 47.1027Z" fill="#969696"/>
<path fill-rule="evenodd" clip-rule="evenodd" d="M82.9279 82.0472C82.1761 80.3043 80.152 76.0651 78.5442 75.0569C71.7124 70.7757 65.9834 70.1559 58.6405 66.8239C59.0102 83.6223 39.9143 83.4017 39.5306 66.3672C31.804 69.8375 24.6692 71.7466 17.4289 76.1427C15.9562 77.0375 15.0863 79.9874 14.4541 81.592C18.891 86.1691 24.1952 89.8164 30.0571 92.3211C35.919 94.8258 42.2211 96.1376 48.5956 96.18C54.97 96.2223 61.289 94.9944 67.1837 92.5679C73.0784 90.1414 78.4306 86.5649 82.9279 82.0472Z" fill="#434955"/>
<path fill-rule="evenodd" clip-rule="evenodd" d="M39.5046 66.3784L49.1807 79.2841C43.0758 90.5928 30.9049 87.8122 28.157 70.411C34.849 67.8635 39.5046 66.3784 39.5046 66.3784Z" fill="white"/>
<path fill-rule="evenodd" clip-rule="evenodd" d="M33.2129 42.0541H46.9107C47.0891 42.054 47.2604 42.1237 47.3881 42.2482C47.5158 42.3727 47.5898 42.5422 47.5942 42.7205C47.6283 43.1385 47.6329 43.5585 47.6082 43.9772H50.2179C50.1934 43.558 50.1981 43.1375 50.2319 42.7189C50.2368 42.5409 50.3109 42.3718 50.4386 42.2476C50.5662 42.1235 50.7373 42.054 50.9154 42.0541H64.6133C64.703 42.0541 64.7919 42.0718 64.8748 42.1061C64.9577 42.1405 65.0331 42.1908 65.0966 42.2543C65.16 42.3177 65.2104 42.3931 65.2447 42.476C65.2791 42.5589 65.2968 42.6478 65.2968 42.7376C65.2968 42.7593 65.4055 50.7453 57.3869 50.7453C52.7857 50.7453 51.1049 48.1387 50.5115 45.8863H47.3131C46.7197 48.1387 45.0389 50.7453 40.4362 50.7453C32.4191 50.7453 32.5294 42.7609 32.5294 42.7376C32.5294 42.5566 32.6012 42.383 32.729 42.2548C32.8569 42.1267 33.0319 42.0545 33.2129 42.0541Z" fill="#E6E6E6"/>
<path fill-rule="evenodd" clip-rule="evenodd" d="M58.6797 66.3784L49.1418 79.2841C55.1566 90.5928 67.1535 87.8122 69.8642 70.411C63.2669 67.8635 58.6797 66.3784 58.6797 66.3784Z" fill="white"/>
<path fill-rule="evenodd" clip-rule="evenodd" d="M33.2129 42.0541H46.9107C47.0891 42.054 47.2604 42.1237 47.3881 42.2482C47.5158 42.3727 47.5898 42.5422 47.5942 42.7205C47.6283 43.1385 47.6329 43.5585 47.6082 43.9772H50.2179C50.1934 43.558 50.1981 43.1375 50.2319 42.7189C50.2368 42.5409 50.3109 42.3718 50.4386 42.2476C50.5662 42.1235 50.7373 42.054 50.9154 42.0541H64.6133C64.703 42.0541 64.7919 42.0718 64.8748 42.1061C64.9577 42.1405 65.0331 42.1908 65.0966 42.2543C65.16 42.3177 65.2104 42.3931 65.2447 42.476C65.2791 42.5589 65.2968 42.6478 65.2968 42.7376C65.2968 42.7593 65.4055 50.7453 57.3869 50.7453C52.7857 50.7453 51.1049 48.1387 50.5115 45.8863H47.3131C46.7197 48.1387 45.0389 50.7453 40.4362 50.7453C32.4191 50.7453 32.5294 42.7609 32.5294 42.7376C32.5294 42.5566 32.6012 42.383 32.729 42.2548C32.8569 42.1267 33.0319 42.0545 33.2129 42.0541ZM63.8878 43.4211H51.5632C51.4846 44.2115 51.5802 45.0096 51.8432 45.7591C52.1062 46.5087 52.5303 47.1915 53.0856 47.7595C53.6409 48.3275 54.3139 48.767 55.0573 49.0469C55.8007 49.3269 56.5964 49.4405 57.3884 49.3799C58.2083 49.4231 59.0287 49.3024 59.8014 49.0249C60.5742 48.7474 61.2839 48.3187 61.889 47.7637C62.4941 47.2088 62.9826 46.5388 63.3258 45.7929C63.669 45.047 63.8601 44.2401 63.8878 43.4195V43.4211ZM46.2614 43.4211H33.9383C33.9663 44.2415 34.1575 45.0482 34.5008 45.7939C34.8441 46.5397 35.3325 47.2095 35.9377 47.7643C36.5428 48.3191 37.2524 48.7477 38.0251 49.0251C38.7977 49.3025 39.6179 49.4231 40.4377 49.3799C41.2299 49.4406 42.0258 49.3269 42.7693 49.0468C43.5128 48.7668 44.1859 48.3272 44.7412 47.759C45.2965 47.1908 45.7205 46.5078 45.9835 45.7581C46.2464 45.0083 46.3418 44.2101 46.263 43.4195L46.2614 43.4211Z" fill="#434955"/>
<path d="M49.1246 87.9602C49.8444 87.9602 50.4279 87.3767 50.4279 86.6569C50.4279 85.9371 49.8444 85.3536 49.1246 85.3536C48.4048 85.3536 47.8213 85.9371 47.8213 86.6569C47.8213 87.3767 48.4048 87.9602 49.1246 87.9602Z" fill="#E6E6E6"/>
<path d="M49.1246 92.805C49.8444 92.805 50.4279 92.2215 50.4279 91.5017C50.4279 90.7819 49.8444 90.1984 49.1246 90.1984C48.4048 90.1984 47.8213 90.7819 47.8213 91.5017C47.8213 92.2215 48.4048 92.805 49.1246 92.805Z" fill="#E6E6E6"/>
</svg>
