<svg width="97" height="97" viewBox="0 0 97 97" fill="none" xmlns="http://www.w3.org/2000/svg">
<path fill-rule="evenodd" clip-rule="evenodd" d="M48.4438 13.2805C81.5018 13.2805 68.6178 68.0628 48.4438 68.0628C29.3898 68.0628 15.3858 13.2805 48.4438 13.2805Z" fill="#FFE8BE"/>
<path d="M48.0908 96.1814C74.6005 96.1814 96.0908 74.6911 96.0908 48.1814C96.0908 21.6717 74.6005 0.181396 48.0908 0.181396C21.5812 0.181396 0.0908203 21.6717 0.0908203 48.1814C0.0908203 74.6911 21.5812 96.1814 48.0908 96.1814Z" fill="#58B0E0"/>
<path fill-rule="evenodd" clip-rule="evenodd" d="M70.7466 31.2297L25.4292 31.5016C25.4292 31.5016 27.0572 56.5859 21.3608 64.4493H76.8189C75.3898 62.3522 71.6103 61.6764 70.7466 31.2297Z" fill="#60350A"/>
<path fill-rule="evenodd" clip-rule="evenodd" d="M28.261 71.0151L39.4548 66.0644L57.3966 65.5984L68.9229 71.652L60.6013 89.0734L48.7752 95.4237L36.5422 88.6664L28.261 71.0151Z" fill="#D5E1ED"/>
<path fill-rule="evenodd" clip-rule="evenodd" d="M38.5286 60.2678L58.6156 60.3983V74.2997L38.5286 74.1677V60.2678Z" fill="#F9DCA4"/>
<path opacity="0.11" fill-rule="evenodd" clip-rule="evenodd" d="M58.6215 60.4192V65.9804C58.6433 66.6159 58.6226 67.2521 58.5594 67.8849C58.4658 68.5863 58.3029 69.2768 58.0732 69.9462C51.2848 76.4161 40.397 71.1579 38.6711 60.1085L58.6215 60.4192Z" fill="black"/>
<path fill-rule="evenodd" clip-rule="evenodd" d="M82.1097 82.0468C77.6124 86.5645 72.2602 90.141 66.3655 92.5676C60.4708 94.9941 54.1518 96.222 47.7773 96.1796C41.4028 96.1373 35.1007 94.8254 29.2388 92.3208C23.3768 89.8161 18.0726 86.1688 13.6357 81.5917L15.5324 76.7792L29.6731 70.3761C34.7403 79.6654 40.2517 88.2775 48.8063 94.3839C56.55 87.9383 62.8226 79.9082 67.2017 70.8344L79.8527 76.8196L82.1097 82.0468Z" fill="#434955"/>
<path fill-rule="evenodd" clip-rule="evenodd" d="M29.7738 37.7472C25.1788 39.7511 29.0872 49.2579 31.9796 49.216C30.7794 45.4973 30.0386 41.6458 29.7738 37.7472Z" fill="#F9DCA4"/>
<path fill-rule="evenodd" clip-rule="evenodd" d="M67.6728 37.7454C72.2709 39.7524 68.3609 49.2576 65.4685 49.2157C66.6685 45.4965 67.4087 41.6444 67.6728 37.7454Z" fill="#F9DCA4"/>
<path fill-rule="evenodd" clip-rule="evenodd" d="M48.4248 13.6442C61.9736 13.6442 67.6513 23.2753 67.9993 34.4085C68.4762 49.6474 59.1837 67.6979 48.4264 67.6979C38.2361 67.6979 28.6888 49.0291 29.2683 33.6349C29.6721 22.8341 35.1929 13.6442 48.4248 13.6442Z" fill="#FFE8BE"/>
<path fill-rule="evenodd" clip-rule="evenodd" d="M51.9748 38.9897C54.4021 37.5069 57.2862 36.9586 60.0882 37.4471H60.096C68.1022 38.4258 68.2265 40.9143 67.4482 41.4875C66.9273 41.918 66.5104 42.4607 66.2288 43.0751C66.0549 44.697 65.4945 46.2536 64.5946 47.6141C63.9954 48.5529 63.2077 49.3568 62.2814 49.9751C61.3551 50.5933 60.3104 51.0124 59.2136 51.2056C58.9527 51.2476 58.6855 51.2802 58.4121 51.2957C57.3432 51.3723 56.2715 51.1933 55.2856 50.7736C54.2996 50.3538 53.4278 49.7053 52.7422 48.8817C51.7507 47.7176 50.9733 46.387 50.4462 44.9516V44.9563C50.4462 44.9563 49.2082 42.4149 47.2276 44.7792C46.6956 46.278 45.8955 47.6676 44.8664 48.8802C44.1807 49.7041 43.3086 50.3528 42.3224 50.7729C41.3362 51.1929 40.2642 51.3721 39.1949 51.2957C38.9264 51.2789 38.6589 51.2489 38.3934 51.2056C37.2966 51.0123 36.252 50.5932 35.3257 49.975C34.3995 49.3567 33.6117 48.5528 33.0124 47.6141C32.1129 46.254 31.5525 44.698 31.3782 43.0767C31.1101 42.4602 30.7003 41.9157 30.1821 41.4875C29.4054 40.9128 29.5219 38.4227 37.5281 37.444H37.5312C40.3451 36.958 43.2395 37.5159 45.6711 39.013L45.6695 39.0114L45.6742 39.0145L46.0082 39.218C46.9394 39.6941 47.9772 39.923 49.0223 39.8827C50.0674 39.8425 51.0845 39.5344 51.9763 38.9881L51.9748 38.9897ZM44.7173 39.9807C43.2736 39.1469 41.6493 38.6756 39.9835 38.6071C38.3177 38.5387 36.6602 38.8752 35.153 39.5877C32.8058 40.6533 32.0897 41.4052 33 44.5011C33.2466 45.3456 33.6195 46.148 34.106 46.8809C34.6551 47.7744 35.4113 48.5224 36.3106 49.0619C37.2099 49.6013 38.2259 49.9162 39.2726 49.98C40.1423 50.0399 41.0137 49.8919 41.8149 49.5483C42.616 49.2047 43.3239 48.6754 43.88 48.0041C44.8009 46.9146 45.5167 45.6673 45.9926 44.3225C47.0474 41.5574 47.3317 41.4285 44.7188 39.9807H44.7173ZM61.7224 39.2817C60.2322 38.7219 58.6337 38.5099 57.0491 38.662C55.4645 38.8142 53.9356 39.3263 52.5791 40.1594C50.1899 41.5745 50.6249 41.8106 51.6812 44.4934C52.1511 45.7746 52.8431 46.963 53.7255 48.0041C54.2817 48.6756 54.9899 49.2051 55.7913 49.5487C56.5928 49.8923 57.4645 50.0401 58.3344 49.98C58.5582 49.9665 58.7812 49.9417 59.0024 49.9054C59.9207 49.7401 60.7947 49.3859 61.5691 48.8652C62.3435 48.3446 63.0013 47.6689 63.501 46.8809C63.9602 46.1899 64.318 45.4366 64.5636 44.644C65.6541 41.1489 64.6816 40.3706 61.7239 39.2832L61.7224 39.2817Z" fill="#464449"/>
<path fill-rule="evenodd" clip-rule="evenodd" d="M27.8823 39.9606C27.8823 38.9695 29.4109 38.5843 30.3647 44.5322C31.1349 42.1027 31.633 39.5952 31.8497 37.0557C33.6548 37.4052 35.3884 41.4798 34.8431 45.0526C39.7612 43.8456 52.4013 36.2184 56.5116 25.9085C67.0312 31.9683 66.9737 44.6954 66.9737 44.6954C66.9737 44.6954 67.5299 41.7439 67.8405 39.2336C67.9431 38.3979 68.2957 38.0949 69.0801 38.9027C74.7687 27.1217 65.8009 9.1131 48.7088 8.83349C25.24 8.45135 22.2544 33.865 27.8839 39.9621L27.8823 39.9606Z" fill="#8A5C42"/>
<path fill-rule="evenodd" clip-rule="evenodd" d="M38.5621 66.0936C41.0164 69.7511 44.5147 72.5852 48.6017 74.2272L42.065 83.7714L32.8735 68.5791L38.5621 66.0936Z" fill="white"/>
<path fill-rule="evenodd" clip-rule="evenodd" d="M58.6253 66.0936C56.1709 69.751 52.6727 72.5851 48.5857 74.2272L55.124 83.7714L64.3714 68.7531L58.6253 66.0936Z" fill="white"/>
<path d="M48.5915 83.1359C49.3113 83.1359 49.8948 82.5524 49.8948 81.8326C49.8948 81.1127 49.3113 80.5292 48.5915 80.5292C47.8716 80.5292 47.2881 81.1127 47.2881 81.8326C47.2881 82.5524 47.8716 83.1359 48.5915 83.1359Z" fill="#434955"/>
<path d="M48.5915 88.9277C49.3113 88.9277 49.8948 88.3441 49.8948 87.6243C49.8948 86.9045 49.3113 86.3209 48.5915 86.3209C47.8716 86.3209 47.2881 86.9045 47.2881 87.6243C47.2881 88.3441 47.8716 88.9277 48.5915 88.9277Z" fill="#434955"/>
<path fill-rule="evenodd" clip-rule="evenodd" d="M65.333 38.6079C68.1042 39.7139 68.0033 41.0638 67.4565 41.4677C66.9355 41.8982 66.5187 42.441 66.237 43.0553C66.1157 44.1778 65.8102 45.2725 65.333 46.2957V38.6079ZM31.983 45.5656C31.6796 44.7577 31.4792 43.9148 31.3864 43.0569C31.1184 42.4404 30.7086 41.8959 30.1903 41.4677C29.6668 41.0809 29.5488 39.8211 31.983 38.7431V45.5656Z" fill="#464449"/>
</svg>
