<svg width="97" height="97" viewBox="0 0 97 97" fill="none" xmlns="http://www.w3.org/2000/svg">
<path d="M48.2727 96.136C74.7824 96.136 96.2727 74.6559 96.2727 48.1587C96.2727 21.6616 74.7824 0.181396 48.2727 0.181396C21.763 0.181396 0.272705 21.6616 0.272705 48.1587C0.272705 74.6559 21.763 96.136 48.2727 96.136Z" fill="#3DBC93"/>
<path fill-rule="evenodd" clip-rule="evenodd" d="M36.4006 60.2399L61.1106 60.4277V80.4851L36.4006 80.2972V60.2399Z" fill="#F9DCA4"/>
<path opacity="0.11" fill-rule="evenodd" clip-rule="evenodd" d="M61.1147 60.391V65.9495C61.1106 66.5632 61.0597 67.1757 60.9625 67.7817C60.8402 68.5295 60.6344 69.2612 60.3489 69.9632C52.0009 76.4285 38.696 71.1246 36.5725 60.0804L61.1147 60.391Z" fill="black"/>
<path fill-rule="evenodd" clip-rule="evenodd" d="M48.6257 13.2729C81.6837 13.2729 68.7997 68.0294 48.6257 68.0294C29.5716 68.0294 15.5677 13.2729 48.6257 13.2729Z" fill="#FFE8BE"/>
<path fill-rule="evenodd" clip-rule="evenodd" d="M28.7994 37.5163C24.0304 39.5953 28.0848 49.4501 31.086 49.4067C29.8411 45.5508 29.0732 41.5587 28.7994 37.5163Z" fill="#F9DCA4"/>
<path fill-rule="evenodd" clip-rule="evenodd" d="M68.8352 37.5166C73.6041 39.5956 69.5575 49.4504 66.5579 49.4054C67.7992 45.5501 68.564 41.5575 68.8352 37.5166Z" fill="#F9DCA4"/>
<path fill-rule="evenodd" clip-rule="evenodd" d="M68.8123 37.7101C68.8123 37.7101 81.1774 19.4119 64.7175 12.3488C62.6568 9.07251 59.6175 6.52698 56.0296 5.07244C52.4417 3.6179 48.487 3.32803 44.7253 4.24384C35.6503 6.08996 32.2778 10.5849 32.2778 10.5849C32.2778 10.5849 23.6875 18.37 16.0603 18.5299C18.9036 20.5293 22.3471 21.4928 25.8157 21.2595C24.7718 23.868 22.7632 32.4543 28.9054 38.1122C35.6907 33.6592 41.3513 24.9502 41.3513 24.9502C41.3513 24.9502 42.8767 30.0073 41.6728 32.4962C46.1449 31.6481 50.3581 29.771 53.9789 27.0137C57.9276 23.8525 60.0263 20.3419 62.2274 20.2969C67.2853 20.1898 68.7719 35.4199 68.8139 37.7116L68.8123 37.7101Z" fill="#ECBE6A"/>
<path fill-rule="evenodd" clip-rule="evenodd" d="M83.311 80.9541C78.8325 85.7644 73.4092 89.5995 67.3803 92.2196C61.3514 94.8396 54.8466 96.1882 48.2725 96.1811C46.2821 96.1809 44.2936 96.058 42.3183 95.8131C36.2605 94.9441 30.3999 93.0296 24.9978 90.1552C20.4363 87.6153 16.3184 84.3509 12.8052 80.4898L14.7966 75.6765L36.4045 66.0314C37.3754 71.8119 48.5303 78.7244 48.5303 78.7244C48.5303 78.7244 59.735 73.4267 61.0927 65.9755L80.9405 75.7278L83.311 80.9541Z" fill="#498BD9"/>
<mask id="mask0_22_344" style="mask-type:luminance" maskUnits="userSpaceOnUse" x="12" y="65" width="72" height="32">
<path fill-rule="evenodd" clip-rule="evenodd" d="M83.3108 80.9538C78.8323 85.7642 73.409 89.5993 67.3801 92.2193C61.3512 94.8394 54.8463 96.188 48.2722 96.1808C46.2818 96.1807 44.2933 96.0578 42.318 95.8129C36.2603 94.9438 30.3996 93.0294 24.9976 90.1549C20.4361 87.615 16.3181 84.3506 12.8049 80.4896L14.7964 75.6763L36.4042 66.0311C37.3751 71.8117 48.5301 78.7242 48.5301 78.7242C48.5301 78.7242 59.7348 73.4265 61.0925 65.9752L80.9403 75.7275L83.3108 80.9538Z" fill="white"/>
</mask>
<g mask="url(#mask0_22_344)">
<path fill-rule="evenodd" clip-rule="evenodd" d="M22.1953 72.3747L32.7802 67.6515L48.6389 89.3547L64.6824 67.7136L73.9236 72.1092V103.214H22.1953V72.3747Z" fill="#545F69"/>
<mask id="mask1_22_344" style="mask-type:luminance" maskUnits="userSpaceOnUse" x="22" y="67" width="52" height="37">
<path fill-rule="evenodd" clip-rule="evenodd" d="M22.1948 72.3753L32.7797 67.6521L48.6384 89.3553L64.682 67.7142L73.9231 72.1098V103.214H22.1948V72.3753Z" fill="white"/>
</mask>
<g mask="url(#mask1_22_344)">
<path fill-rule="evenodd" clip-rule="evenodd" d="M58.9741 66.7629H60.1112V99.9621H58.9741V66.7629ZM36.0226 66.7629H37.1581V99.9621H36.0241V66.7629H36.0226ZM31.3919 66.7629H32.5274V99.9621H31.3919V66.7629ZM26.8187 66.7629H27.9542V99.9621H26.8202L26.8187 66.7629ZM22.188 66.7629H23.3235V99.9621H22.188V66.7629ZM54.3559 66.7629H55.4914V99.9621H54.3559V66.7629ZM49.7252 66.7629H50.8607V99.9621H49.7252V66.7629ZM45.1519 66.7629H46.2875V99.9621H45.1519V66.7629ZM40.5212 66.7629H41.6568V99.9621H40.5212V66.7629ZM72.8087 66.7629H73.9458V99.9621H72.8087V66.7629ZM68.1796 66.7629H69.3136V99.9621H68.1796V66.7629ZM63.6064 66.7629H64.7404V99.9621H63.6064V66.7629Z" fill="#434955"/>
</g>
</g>
<path fill-rule="evenodd" clip-rule="evenodd" d="M36.4142 64.2598L48.5338 78.7244L38.7396 84.2411L31.2476 67.7967L36.4142 64.2598Z" fill="#58B0E0"/>
<path fill-rule="evenodd" clip-rule="evenodd" d="M61.0986 64.5391L48.5347 78.7242L58.6597 84.2409L66.0804 67.5978L61.0986 64.5391Z" fill="#58B0E0"/>
<path fill-rule="evenodd" clip-rule="evenodd" d="M33.8852 36.1366H43.8519C44.1748 36.1365 44.4945 36.2001 44.7928 36.3237C45.0911 36.4473 45.362 36.6286 45.5901 36.857V36.8601C45.8184 37.0877 45.9995 37.358 46.1232 37.6556C46.2469 37.9532 46.3107 38.2722 46.3109 38.5945V43.0863C46.3101 43.738 46.0507 44.3627 45.5897 44.8234C45.1288 45.2842 44.5038 45.5434 43.8519 45.5442H33.8852C33.563 45.5437 33.244 45.4796 32.9465 45.3558C32.649 45.2319 32.3789 45.0506 32.1516 44.8222H32.1485C31.9201 44.5944 31.7389 44.3239 31.6152 44.026C31.4915 43.7282 31.4278 43.4088 31.4277 43.0863V38.5945C31.4279 38.2722 31.4917 37.9532 31.6154 37.6556C31.7391 37.358 31.9202 37.0877 32.1485 36.8601L32.1516 36.857C32.379 36.629 32.6492 36.448 32.9467 36.3243C33.2441 36.2007 33.5631 36.1369 33.8852 36.1366ZM43.8519 37.4564H33.8852C33.5842 37.457 33.2955 37.5764 33.0821 37.7886L33.0806 37.7917C32.8682 38.005 32.7487 38.2936 32.7481 38.5945V43.0863C32.7482 43.2355 32.7777 43.3832 32.8351 43.521C32.8924 43.6587 32.9763 43.7838 33.0821 43.8891C33.2953 44.1019 33.5839 44.2219 33.8852 44.2229H43.8519C44.153 44.2217 44.4416 44.1015 44.6545 43.8887C44.8675 43.6758 44.9877 43.3874 44.9889 43.0863V38.5945C44.9889 38.293 44.8694 38.0038 44.6565 37.7902C44.551 37.6843 44.4256 37.6004 44.2875 37.5431C44.1494 37.4858 44.0014 37.4563 43.8519 37.4564Z" fill="#464449"/>
<path fill-rule="evenodd" clip-rule="evenodd" d="M53.9419 36.1366H63.9086C64.2312 36.1367 64.5507 36.2004 64.8487 36.324C65.1467 36.4476 65.4174 36.6287 65.6453 36.857V36.8601C65.8738 37.0876 66.0553 37.3578 66.1792 37.6554C66.3032 37.953 66.3672 38.2721 66.3676 38.5945V43.0863C66.3668 43.738 66.1075 44.3627 65.6465 44.8234C65.1855 45.2842 64.5605 45.5434 63.9086 45.5442H53.9419C53.6195 45.5437 53.3002 45.4797 53.0025 45.3558C52.7048 45.2319 52.4344 45.0506 52.2068 44.8222L52.2052 44.8191C51.7442 44.3601 51.4843 43.7368 51.4829 43.0863V38.5945C51.4834 38.2721 51.5475 37.953 51.6714 37.6555C51.7953 37.3579 51.9767 37.0876 52.2052 36.8601L52.2083 36.8586C52.6676 36.3977 53.2912 36.138 53.9419 36.1366ZM63.9086 37.4564H53.9419C53.7928 37.4562 53.6451 37.4855 53.5073 37.5425C53.3695 37.5996 53.2443 37.6832 53.1388 37.7886L53.1373 37.7917C53.0317 37.8971 52.948 38.0222 52.8909 38.16C52.8339 38.2977 52.8046 38.4454 52.8049 38.5945V43.0863C52.8047 43.2354 52.834 43.3831 52.8911 43.5208C52.9481 43.6586 53.0318 43.7837 53.1373 43.8891L53.1388 43.8906C53.2443 43.9961 53.3695 44.0797 53.5073 44.1367C53.6451 44.1937 53.7928 44.223 53.9419 44.2229H63.9086C64.2098 44.2217 64.4983 44.1015 64.7113 43.8887C64.9242 43.6758 65.0444 43.3874 65.0457 43.0863V38.5945C65.0457 38.293 64.9261 38.0038 64.7132 37.7902C64.6079 37.6845 64.4812 37.6007 64.3434 37.5434C64.2056 37.4861 64.0578 37.4565 63.9086 37.4564Z" fill="#464449"/>
<path d="M45.9629 38.2311H51.9357V39.5912H45.9629V38.2311Z" fill="#464449"/>
</svg>
