<svg width="30" height="30" viewBox="0 0 30 30" fill="none" xmlns="http://www.w3.org/2000/svg">
<path d="M25.5185 4.41366C23.0691 1.94457 19.8363 0.408707 16.3774 0.070866C12.9184 -0.266975 9.45021 0.614375 6.57059 2.56297C3.69098 4.51157 1.58043 7.4053 0.602818 10.7453C-0.374795 14.0852 -0.158211 17.6622 1.21523 20.8594C1.35838 21.1565 1.40535 21.491 1.34959 21.8162L0.0358936 28.1403C-0.0147191 28.3828 -0.00438392 28.634 0.0659705 28.8715C0.136325 29.109 0.264494 29.3252 0.438958 29.5008C0.581978 29.643 0.752265 29.7547 0.939555 29.8293C1.12685 29.9038 1.32726 29.9395 1.52873 29.9344H1.82729L8.21661 28.6486C8.54135 28.6095 8.87065 28.6559 9.17202 28.7832C12.3644 30.1587 15.936 30.3756 19.271 29.3965C22.606 28.4174 25.4954 26.3037 27.4411 23.4198C29.3868 20.5359 30.2668 17.0625 29.9295 13.5984C29.5921 10.1343 28.0586 6.89664 25.5932 4.44356L25.5185 4.41366ZM8.99288 16.4788C8.69763 16.4788 8.40901 16.3911 8.16351 16.2269C7.91802 16.0626 7.72667 15.8291 7.61369 15.5559C7.5007 15.2827 7.47113 14.9821 7.52874 14.6921C7.58634 14.4021 7.72852 14.1357 7.93729 13.9266C8.14607 13.7175 8.41206 13.5751 8.70165 13.5174C8.99123 13.4597 9.29139 13.4893 9.56417 13.6025C9.83694 13.7157 10.0701 13.9073 10.2341 14.1531C10.3982 14.399 10.4857 14.6881 10.4857 14.9838C10.4857 15.3803 10.3284 15.7606 10.0485 16.0409C9.76851 16.3213 9.38881 16.4788 8.99288 16.4788ZM14.9642 16.4788C14.669 16.4788 14.3803 16.3911 14.1348 16.2269C13.8893 16.0626 13.698 15.8291 13.585 15.5559C13.472 15.2827 13.4425 14.9821 13.5001 14.6921C13.5577 14.4021 13.6998 14.1357 13.9086 13.9266C14.1174 13.7175 14.3834 13.5751 14.673 13.5174C14.9626 13.4597 15.2627 13.4893 15.5355 13.6025C15.8083 13.7157 16.0414 13.9073 16.2055 14.1531C16.3695 14.399 16.457 14.6881 16.457 14.9838C16.457 15.3803 16.2998 15.7606 16.0198 16.0409C15.7398 16.3213 15.3601 16.4788 14.9642 16.4788ZM20.9355 16.4788C20.6403 16.4788 20.3517 16.3911 20.1062 16.2269C19.8607 16.0626 19.6693 15.8291 19.5563 15.5559C19.4433 15.2827 19.4138 14.9821 19.4714 14.6921C19.529 14.4021 19.6712 14.1357 19.8799 13.9266C20.0887 13.7175 20.3547 13.5751 20.6443 13.5174C20.9339 13.4597 21.234 13.4893 21.5068 13.6025C21.7796 13.7157 22.0127 13.9073 22.1768 14.1531C22.3408 14.399 22.4284 14.6881 22.4284 14.9838C22.4284 15.3803 22.2711 15.7606 21.9911 16.0409C21.7112 16.3213 21.3315 16.4788 20.9355 16.4788Z" fill="#A7A9AA"/>
</svg>
