<svg width="621" height="509" viewBox="0 0 621 509" fill="none" xmlns="http://www.w3.org/2000/svg">
<g clip-path="url(#clip0_463_698)">
<path d="M453.815 419.035C458.737 420.765 464.023 421.199 469.161 420.294C474.3 419.388 479.119 417.175 483.154 413.867C493.43 405.242 496.652 391.032 499.274 377.874L507.028 338.957L490.794 350.135C479.12 358.173 467.182 366.469 459.099 378.113C451.016 389.756 447.487 405.651 453.982 418.25" fill="#E6E6E6"/>
<path d="M455.21 466.153C453.567 454.184 451.877 442.062 453.03 429.966C454.053 419.223 457.331 408.73 464.003 400.126C467.545 395.568 471.855 391.663 476.739 388.586C478.012 387.782 479.184 389.8 477.916 390.601C469.466 395.941 462.93 403.828 459.25 413.123C455.186 423.459 454.534 434.727 455.234 445.707C455.658 452.347 456.555 458.944 457.46 465.532C457.531 465.83 457.486 466.144 457.335 466.411C457.184 466.677 456.937 466.876 456.645 466.968C456.346 467.048 456.028 467.008 455.76 466.855C455.491 466.702 455.293 466.45 455.21 466.153Z" fill="#F2F2F2"/>
<path d="M471.035 444.976C473.146 448.184 476.048 450.795 479.461 452.557C482.874 454.319 486.684 455.172 490.522 455.034C500.387 454.565 508.611 447.68 516.015 441.144L537.912 421.81L523.42 421.116C512.997 420.618 502.306 420.152 492.38 423.366C482.453 426.58 473.298 434.315 471.483 444.59" fill="#E6E6E6"/>
<path d="M450.559 473.033C458.468 459.039 467.641 443.487 484.031 438.517C488.589 437.139 493.368 436.646 498.11 437.063C499.605 437.192 499.232 439.496 497.74 439.367C489.79 438.707 481.855 440.806 475.272 445.311C468.937 449.623 464.004 455.618 459.83 461.976C457.272 465.87 454.982 469.929 452.691 473.983C451.958 475.279 449.818 474.343 450.559 473.033Z" fill="#F2F2F2"/>
<path d="M255.646 374.726C245.944 378.137 235.528 378.991 225.4 377.207C215.273 375.423 205.775 371.061 197.823 364.54C177.569 347.542 171.22 319.536 166.053 293.604C160.959 268.037 155.865 242.47 150.771 216.904L182.765 238.934C205.774 254.777 229.301 271.127 245.232 294.075C261.163 317.023 268.117 348.348 255.317 373.179" fill="#E6E6E6"/>
<path d="M252.91 467.589C256.148 444.001 259.478 420.111 257.206 396.27C255.189 375.097 248.729 354.417 235.579 337.46C228.598 328.477 220.104 320.78 210.479 314.716C207.969 313.131 205.659 317.109 208.158 318.687C224.812 329.212 237.694 344.756 244.946 363.075C252.955 383.446 254.242 405.653 252.861 427.294C252.027 440.381 250.258 453.382 248.475 466.367C248.335 466.954 248.422 467.572 248.72 468.097C249.019 468.623 249.505 469.015 250.081 469.195C250.669 469.354 251.296 469.274 251.825 468.973C252.355 468.672 252.744 468.175 252.91 467.589Z" fill="#F2F2F2"/>
<path d="M221.723 425.849C217.562 432.173 211.843 437.319 205.116 440.791C198.389 444.263 190.881 445.944 183.316 445.672C163.874 444.749 147.665 431.18 133.074 418.297L89.9175 380.193L118.48 378.826C139.021 377.843 160.091 376.926 179.655 383.26C199.22 389.595 217.263 404.839 220.84 425.09" fill="#E6E6E6"/>
<path d="M262.058 481.148C246.472 453.569 228.393 422.918 196.089 413.122C187.107 410.407 177.689 409.435 168.342 410.257C165.396 410.511 166.131 415.052 169.072 414.798C184.74 413.497 200.378 417.635 213.353 426.513C225.838 435.012 235.56 446.827 243.788 459.357C248.828 467.031 253.342 475.032 257.857 483.021C259.3 485.575 263.518 483.731 262.058 481.148Z" fill="#F2F2F2"/>
<path d="M141.761 107.771L7.56181 79.6549L5.81783 79.2904C4.92967 79.103 4.00664 79.1701 3.1549 79.4839C2.30317 79.7978 1.55731 80.3457 1.00311 81.0646C0.448905 81.7835 0.108871 82.6441 0.0220901 83.5477C-0.0646905 84.4513 0.105324 85.361 0.51257 86.1722L54.3686 193.922C54.7171 194.614 55.2269 195.212 55.8549 195.667C56.4829 196.121 57.2109 196.417 57.9775 196.531C58.7465 196.646 59.5319 196.572 60.2659 196.316C60.9999 196.059 61.6604 195.628 62.1903 195.059L98.9203 155.867C99.1815 155.581 99.4991 155.352 99.853 155.195C100.207 155.038 100.59 154.956 100.977 154.954C101.503 154.944 102.022 155.076 102.479 155.338C102.935 155.6 103.312 155.981 103.569 156.441L111.223 170.399C111.712 171.33 112.498 172.07 113.456 172.503C114.415 172.935 115.49 173.034 116.511 172.785L116.549 172.776C117.583 172.551 118.511 171.984 119.184 171.168C119.857 170.351 120.236 169.332 120.26 168.274L121.584 135.94C121.6 135.537 121.699 135.141 121.874 134.777C122.062 134.417 122.318 134.097 122.628 133.834L143.847 116.204C144.545 115.624 145.065 114.86 145.348 113.999C145.631 113.137 145.666 112.213 145.448 111.333C145.23 110.453 144.769 109.652 144.117 109.022C143.464 108.392 142.648 107.958 141.761 107.771ZM142.621 114.723L121.401 132.354C121.125 132.579 120.875 132.835 120.655 133.116L7.33664 82.5336C7.23668 82.4878 7.13246 82.4519 7.0255 82.4265C6.58893 82.3167 6.12773 82.363 5.72166 82.5573C5.31559 82.7516 4.99021 83.0817 4.80174 83.4905C4.61328 83.8993 4.57359 84.3611 4.68957 84.7961C4.80554 85.231 5.06987 85.6118 5.43685 85.8725L98.7652 153.579C98.2951 153.827 97.8713 154.154 97.5124 154.546L60.7829 193.738C60.4642 194.077 60.0682 194.335 59.6287 194.488C59.1892 194.642 58.7191 194.687 58.2584 194.62C57.7976 194.553 57.3599 194.376 56.9823 194.104C56.6047 193.831 56.2984 193.472 56.0895 193.056L2.23355 85.3062C1.99276 84.8193 1.89355 84.2746 1.94724 83.7341C2.00092 83.1936 2.20536 82.6791 2.53721 82.2491C2.86907 81.8192 3.31501 81.491 3.82425 81.3021C4.3335 81.1133 4.88557 81.0712 5.41755 81.1808L7.20293 81.5555L141.36 109.661C141.893 109.773 142.383 110.033 142.775 110.411C143.167 110.789 143.445 111.269 143.576 111.797C143.708 112.326 143.688 112.88 143.519 113.397C143.35 113.915 143.039 114.374 142.621 114.723Z" fill="#CCCCCC"/>
<path d="M141.761 107.771L7.56181 79.6549L5.81783 79.2904C4.92967 79.103 4.00664 79.1701 3.1549 79.4839C2.30317 79.7978 1.55731 80.3457 1.00311 81.0646C0.448905 81.7835 0.108871 82.6441 0.0220901 83.5477C-0.0646905 84.4513 0.105324 85.361 0.51257 86.1722L54.3686 193.922C54.7171 194.614 55.2269 195.212 55.8549 195.667C56.4829 196.121 57.2109 196.417 57.9775 196.531C58.7465 196.646 59.5319 196.572 60.2659 196.316C60.9999 196.059 61.6604 195.628 62.1903 195.059L98.9203 155.867C99.1815 155.581 99.4991 155.352 99.853 155.195C100.207 155.038 100.59 154.956 100.977 154.954C101.503 154.944 102.022 155.076 102.479 155.338C102.935 155.6 103.312 155.981 103.569 156.441L111.223 170.399C111.712 171.33 112.498 172.07 113.456 172.503C114.415 172.935 115.49 173.034 116.511 172.785L116.549 172.776C117.583 172.551 118.511 171.984 119.184 171.168C119.857 170.351 120.236 169.332 120.26 168.274L121.584 135.94C121.6 135.537 121.699 135.141 121.874 134.777C122.062 134.417 122.318 134.097 122.628 133.834L143.847 116.204C144.545 115.624 145.065 114.86 145.348 113.999C145.631 113.137 145.666 112.213 145.448 111.333C145.23 110.453 144.769 109.652 144.117 109.022C143.464 108.392 142.648 107.958 141.761 107.771ZM142.621 114.723L121.401 132.354C121.125 132.579 120.875 132.835 120.655 133.116C120.457 133.367 120.287 133.638 120.147 133.924C120 134.217 119.884 134.525 119.803 134.843L119.805 134.852C119.718 135.183 119.669 135.523 119.659 135.864L118.335 168.198C118.326 168.833 118.101 169.447 117.697 169.938C117.293 170.429 116.734 170.767 116.112 170.898L116.093 170.903C115.48 171.059 114.832 171.003 114.255 170.745C113.678 170.487 113.204 170.042 112.912 169.481L105.256 155.513C104.861 154.795 104.29 154.189 103.596 153.753C102.901 153.318 102.107 153.067 101.289 153.024L101.28 153.027C101.17 153.022 101.06 153.017 100.952 153.022C100.189 153.027 99.4381 153.218 98.7653 153.579C98.2952 153.827 97.8714 154.154 97.5125 154.546L60.7829 193.738C60.4642 194.077 60.0682 194.335 59.6287 194.488C59.1892 194.642 58.7191 194.687 58.2584 194.62C57.7976 194.553 57.3599 194.376 56.9823 194.104C56.6047 193.831 56.2984 193.472 56.0895 193.056L2.23355 85.3062C1.99276 84.8193 1.89355 84.2746 1.94724 83.7341C2.00092 83.1936 2.20536 82.6791 2.53721 82.2491C2.86907 81.8192 3.31501 81.491 3.82425 81.3021C4.3335 81.1133 4.88557 81.0712 5.41755 81.1808L7.20293 81.5555L141.36 109.661C141.893 109.773 142.383 110.033 142.775 110.411C143.167 110.789 143.445 111.269 143.576 111.797C143.708 112.326 143.688 112.88 143.519 113.397C143.35 113.915 143.039 114.374 142.621 114.723Z" fill="#3F3D56"/>
<path d="M121.084 133.305L120.298 135.066L119.805 134.852L119.803 134.842L6.57413 84.3084L101.28 153.026L101.289 153.024L101.54 153.214L100.412 154.776L98.7657 153.578L5.43725 85.872C5.07025 85.6113 4.80592 85.2305 4.68994 84.7955C4.57395 84.3606 4.61361 83.8987 4.80208 83.4899C4.99056 83.0811 5.31597 82.751 5.72206 82.5567C6.12814 82.3625 6.58937 82.3162 7.02595 82.4259C7.13292 82.4514 7.23713 82.4873 7.33709 82.5331L120.656 133.116L121.084 133.305Z" fill="#3F3D56"/>
<path d="M412.44 268.015L417.337 315.898L417.434 316.881L418.889 331.081L430.844 447.997V448.016L433.167 470.699C432.259 471.918 431.457 473.211 430.766 474.565C428.66 478.721 427.631 483.339 427.773 487.996C427.914 492.653 429.222 497.2 431.576 501.22C437.408 499.755 443.16 498.084 448.832 496.207C460.565 492.348 472.008 487.657 483.074 482.171C481.923 475.838 478.615 470.099 473.713 465.927L461.711 321.72L460.66 309.073L457.238 268.015H412.44Z" fill="#FFB8B8"/>
<path d="M446.771 137.601C471.523 112.849 471.523 72.7182 446.771 47.9662C422.019 23.2141 381.888 23.2142 357.136 47.9662C332.384 72.7182 332.384 112.849 357.136 137.601C381.888 162.353 422.019 162.353 446.771 137.601Z" fill="#FFB8B8"/>
<path d="M283.813 354.383C283.823 354.508 283.833 354.633 283.842 354.749C284.053 357.222 285.049 359.562 286.684 361.428C288.32 363.294 290.509 364.589 292.933 365.122L387.522 385.781C388.342 385.96 389.179 386.05 390.019 386.051C392.556 386.05 395.023 385.216 397.041 383.679C399.059 382.141 400.517 379.984 401.192 377.538C401.394 376.786 401.616 376.015 401.857 375.215V375.205C405.048 364.37 410.745 349.62 418.891 331.082C420.732 326.889 422.702 322.496 424.8 317.904C425.186 317.056 425.581 316.198 425.967 315.34C430.295 305.941 435.125 295.767 440.456 284.819C443.065 279.468 445.035 273.828 446.327 268.016C449.761 252.674 448.405 236.648 442.442 222.1C441.228 219.139 439.827 216.257 438.248 213.473C432.023 202.497 423.201 193.216 412.556 186.441C401.911 179.666 389.767 175.605 377.188 174.613C375.192 174.449 373.207 174.372 371.211 174.372C351.251 174.46 332.093 182.235 317.718 196.082C309.235 204.307 302.794 214.402 298.91 225.561C298.659 226.265 298.428 226.978 298.197 227.692C294.635 238.982 291.776 250.483 289.636 262.126C288.354 269.038 287.313 275.854 286.474 282.496C283.534 306.338 282.644 330.388 283.813 354.383Z" fill="#3366CC"/>
<path d="M242.164 475.501C299.63 508.164 367.488 517.378 431.583 501.22C437.415 499.755 443.167 498.084 448.839 496.208C443.807 479.8 437.8 463.708 430.851 448.016V447.997C419.263 422.017 408.62 406.12 403.434 399.102C402.581 397.94 402.02 396.59 401.797 395.166C401.574 393.742 401.695 392.285 402.152 390.918L403.762 386.088C404.375 384.261 404.522 382.309 404.19 380.41C403.858 378.512 403.058 376.726 401.862 375.214V375.204C401.757 375.069 401.641 374.934 401.525 374.8C359.388 326.792 285.93 352.984 285.188 353.254L284.821 353.389L284.59 353.707C284.339 354.054 284.089 354.391 283.848 354.748C263.931 382.656 250.695 425.555 242.164 475.501Z" fill="#2F2E41"/>
<path d="M155.549 166.408C155.866 167.8 156.072 169.215 156.167 170.64L267.021 234.592L293.966 219.08L322.691 256.685L277.659 288.781C274.021 291.374 269.64 292.717 265.174 292.608C260.708 292.499 256.398 290.945 252.89 288.178L138.58 197.997C133.421 199.907 127.803 200.201 122.473 198.84C117.144 197.478 112.354 194.527 108.743 190.377C105.132 186.228 102.869 181.078 102.256 175.611C101.643 170.144 102.71 164.621 105.313 159.775C107.916 154.929 111.933 150.99 116.829 148.483C121.725 145.975 127.269 145.018 132.722 145.738C138.176 146.458 143.281 148.821 147.358 152.514C151.436 156.206 154.293 161.052 155.549 166.408Z" fill="#FFB8B8"/>
<path d="M268.716 233.611V233.62C269.118 235.072 269.799 236.431 270.722 237.621L289.635 262.126L298.649 273.82L306.554 284.058C307.573 285.379 308.865 286.465 310.341 287.242C311.818 288.018 313.445 288.468 315.111 288.559C316.777 288.651 318.443 288.382 319.996 287.772C321.548 287.161 322.951 286.223 324.109 285.022L352.817 255.214L364.665 242.904C371.396 237.651 375.77 229.943 376.828 221.47C377.885 212.997 375.539 204.451 370.304 197.705C365.069 190.96 357.373 186.565 348.903 185.486C340.433 184.406 331.88 186.729 325.121 191.946L317.717 196.082L274.25 220.394C271.985 221.664 270.21 223.655 269.208 226.05C268.205 228.445 268.032 231.106 268.716 233.611Z" fill="#3366CC"/>
<path d="M394.096 248.977L395.908 306.866L395.917 307.232C395.969 308.901 396.379 310.539 397.121 312.034C397.863 313.53 398.919 314.848 400.216 315.898C401.514 316.949 403.023 317.707 404.64 318.121C406.257 318.536 407.945 318.596 409.587 318.299L417.435 316.882L419.44 316.516H419.449L425.966 315.34L460.661 309.074L467.303 307.878C468.944 307.58 470.502 306.932 471.871 305.977C473.239 305.023 474.386 303.786 475.234 302.349C476.082 300.912 476.611 299.31 476.784 297.651C476.958 295.992 476.772 294.315 476.24 292.734L457.528 237.332C455.963 228.939 451.135 221.51 444.101 216.672C437.067 211.835 428.402 209.984 420.005 211.525C411.609 213.067 404.166 217.875 399.309 224.896C394.452 231.916 392.577 240.576 394.096 248.977Z" fill="#3366CC"/>
<path d="M391.919 78.2048C375.628 89.3542 354.238 100.815 337.6 88.9419C326.675 81.1457 323.233 66.7091 327.664 54.04C335.63 31.2572 357.519 21.2272 378.451 13.539C405.661 3.54426 435.29 -4.40697 463.38 2.75074C491.471 9.90845 516.296 37.1057 511.225 65.6469C507.148 88.5991 485.497 107.697 488.571 130.805C491.664 154.062 517.818 166.303 540.909 170.46C563.999 174.616 589.837 175.952 606.431 192.537C627.6 213.695 622.314 251.512 602.395 273.85C582.476 296.188 552.417 306.314 523.29 313.197C484.699 322.318 442.96 327.111 406.308 311.975C369.656 296.839 341.134 256.094 351.751 217.888C356.236 201.749 366.801 188.11 377.011 174.832C387.222 161.554 397.561 147.669 401.455 131.378C404.701 117.802 402.299 102.04 393.296 91.857C391.659 90.0746 390.628 87.8191 390.353 85.4145C390.077 83.0098 390.57 80.5797 391.762 78.473L391.919 78.2048Z" fill="#2F2E41"/>
</g>
<defs>
<clipPath id="clip0_463_698">
<rect width="620.018" height="509" fill="white"/>
</clipPath>
</defs>
</svg>
