<svg width="627" height="475" viewBox="0 0 627 475" fill="none" xmlns="http://www.w3.org/2000/svg">
<g clip-path="url(#clip0_463_718)">
<path d="M503.418 112.722H500.692V41.3234C500.692 35.8967 499.575 30.5232 497.403 25.5096C495.232 20.496 492.049 15.9406 488.036 12.1033C484.024 8.26612 479.261 5.22226 474.018 3.14556C468.776 1.06887 463.157 2.56784e-06 457.483 1.00893e-10H299.31C287.85 -2.42003e-05 276.86 4.35365 268.756 12.1033C260.653 19.8529 256.101 30.3636 256.101 41.3232V433.019C256.101 443.979 260.653 454.49 268.756 462.239C276.86 469.989 287.85 474.343 299.31 474.343H457.482C468.942 474.343 479.933 469.989 488.036 462.239C496.14 454.49 500.692 443.979 500.692 433.019V163.544H503.417L503.418 112.722Z" fill="#3366CC"/>
<path d="M491.495 41.6115V432.731C491.495 440.916 488.095 448.766 482.044 454.553C475.992 460.341 467.784 463.592 459.225 463.592H300.294C291.736 463.592 283.528 460.341 277.476 454.553C271.425 448.766 268.025 440.916 268.024 432.731V41.6115C268.025 33.4266 271.425 25.577 277.476 19.7895C283.528 14.0019 291.736 10.7504 300.294 10.7502H319.575C318.627 12.9767 318.267 15.3916 318.524 17.7827C318.782 20.1737 319.65 22.4676 321.052 24.4626C322.454 26.4575 324.347 28.0924 326.565 29.2234C328.783 30.3543 331.257 30.9468 333.771 30.9485H424.386C426.899 30.9468 429.374 30.3543 431.592 29.2233C433.81 28.0924 435.703 26.4575 437.105 24.4625C438.507 22.4676 439.375 20.1737 439.633 17.7827C439.89 15.3916 439.529 12.9767 438.582 10.7502H459.225C467.784 10.7504 475.992 14.0019 482.044 19.7895C488.095 25.577 491.495 33.4266 491.495 41.6115Z" fill="white"/>
<path d="M308.764 47.0261C302.98 47.0261 297.433 49.2235 293.343 53.1348C289.253 57.0462 286.955 62.3511 286.955 67.8826C286.955 73.4141 289.253 78.7191 293.343 82.6305C297.433 86.5419 302.98 88.7393 308.764 88.7393C314.548 88.7393 320.095 86.5419 324.185 82.6305C328.275 78.7192 330.573 73.4142 330.573 67.8827C330.573 62.3512 328.275 57.0462 324.185 53.1349C320.095 49.2235 314.548 47.0261 308.764 47.0261Z" fill="#E6E6E6"/>
<path d="M467.108 85.4803H352.613C351.167 85.4803 349.78 84.931 348.758 83.9531C347.735 82.9753 347.161 81.649 347.161 80.2661C347.161 78.8833 347.735 77.557 348.758 76.5792C349.78 75.6014 351.167 75.052 352.613 75.052H467.108C468.554 75.052 469.941 75.6014 470.964 76.5792C471.986 77.557 472.561 78.8833 472.561 80.2661C472.561 81.649 471.986 82.9753 470.964 83.9531C469.941 84.931 468.554 85.4803 467.108 85.4803Z" fill="#E6E6E6"/>
<path d="M388.733 63.3201H352.613C351.167 63.3201 349.78 62.7708 348.758 61.793C347.735 60.8151 347.161 59.4889 347.161 58.106C347.161 56.7231 347.735 55.3969 348.758 54.419C349.78 53.4412 351.167 52.8918 352.613 52.8918H388.733C390.179 52.8918 391.566 53.4412 392.589 54.419C393.611 55.3969 394.186 56.7231 394.186 58.106C394.186 59.4889 393.611 60.8151 392.589 61.793C391.566 62.7708 390.179 63.3201 388.733 63.3201Z" fill="#E6E6E6"/>
<path d="M308.764 134.363C302.98 134.363 297.433 136.56 293.343 140.471C289.253 144.383 286.955 149.688 286.955 155.219C286.955 160.751 289.253 166.056 293.343 169.967C297.433 173.879 302.98 176.076 308.764 176.076C314.548 176.076 320.095 173.879 324.185 169.967C328.275 166.056 330.573 160.751 330.573 155.219C330.573 149.688 328.275 144.383 324.185 140.472C320.095 136.56 314.548 134.363 308.764 134.363Z" fill="#E6E6E6"/>
<path d="M467.108 172.817H352.613C351.167 172.817 349.78 172.268 348.758 171.29C347.735 170.312 347.161 168.986 347.161 167.603C347.161 166.22 347.735 164.894 348.758 163.916C349.78 162.938 351.167 162.389 352.613 162.389H467.108C468.554 162.389 469.941 162.938 470.964 163.916C471.986 164.894 472.561 166.22 472.561 167.603C472.561 168.986 471.986 170.312 470.964 171.29C469.941 172.268 468.554 172.817 467.108 172.817Z" fill="#E6E6E6"/>
<path d="M388.733 150.657H352.613C351.167 150.657 349.78 150.108 348.758 149.13C347.735 148.152 347.161 146.826 347.161 145.443C347.161 144.06 347.735 142.734 348.758 141.756C349.78 140.778 351.167 140.229 352.613 140.229H388.733C390.179 140.229 391.566 140.778 392.589 141.756C393.611 142.734 394.186 144.06 394.186 145.443C394.186 146.826 393.611 148.152 392.589 149.13C391.566 150.108 390.179 150.657 388.733 150.657Z" fill="#E6E6E6"/>
<path d="M308.764 309.037C302.98 309.037 297.433 311.234 293.343 315.146C289.253 319.057 286.955 324.362 286.955 329.893C286.955 335.425 289.253 340.73 293.343 344.641C297.433 348.553 302.98 350.75 308.764 350.75C314.548 350.75 320.095 348.553 324.185 344.641C328.275 340.73 330.573 335.425 330.573 329.893C330.573 324.362 328.275 319.057 324.185 315.146C320.095 311.234 314.548 309.037 308.764 309.037Z" fill="#E6E6E6"/>
<path d="M467.108 347.491H352.613C351.167 347.491 349.78 346.942 348.758 345.964C347.735 344.986 347.161 343.66 347.161 342.277C347.161 340.894 347.735 339.568 348.758 338.59C349.78 337.612 351.167 337.063 352.613 337.063H467.108C468.554 337.063 469.941 337.612 470.964 338.59C471.986 339.568 472.561 340.894 472.561 342.277C472.561 343.66 471.986 344.986 470.964 345.964C469.941 346.942 468.554 347.491 467.108 347.491Z" fill="#E6E6E6"/>
<path d="M388.733 325.331H352.613C351.167 325.331 349.78 324.782 348.758 323.804C347.735 322.826 347.161 321.5 347.161 320.117C347.161 318.734 347.735 317.408 348.758 316.43C349.78 315.452 351.167 314.903 352.613 314.903H388.733C390.179 314.903 391.566 315.452 392.589 316.43C393.611 317.408 394.186 318.734 394.186 320.117C394.186 321.5 393.611 322.826 392.589 323.804C391.566 324.782 390.179 325.331 388.733 325.331Z" fill="#E6E6E6"/>
<path d="M308.764 396.374C302.98 396.374 297.433 398.571 293.343 402.482C289.253 406.394 286.955 411.699 286.955 417.23C286.955 422.762 289.253 428.067 293.343 431.978C297.433 435.89 302.98 438.087 308.764 438.087C314.548 438.087 320.095 435.89 324.185 431.978C328.275 428.067 330.573 422.762 330.573 417.23C330.573 411.699 328.275 406.394 324.185 402.483C320.095 398.571 314.548 396.374 308.764 396.374Z" fill="#E6E6E6"/>
<path d="M467.108 434.828H352.613C351.167 434.828 349.78 434.279 348.758 433.301C347.735 432.323 347.161 430.997 347.161 429.614C347.161 428.231 347.735 426.905 348.758 425.927C349.78 424.949 351.167 424.4 352.613 424.4H467.108C468.554 424.4 469.941 424.949 470.964 425.927C471.986 426.905 472.561 428.231 472.561 429.614C472.561 430.997 471.986 432.323 470.964 433.301C469.941 434.279 468.554 434.828 467.108 434.828Z" fill="#E6E6E6"/>
<path d="M388.733 412.668H352.613C351.167 412.668 349.78 412.119 348.758 411.141C347.735 410.163 347.161 408.837 347.161 407.454C347.161 406.071 347.735 404.745 348.758 403.767C349.78 402.789 351.167 402.24 352.613 402.24H388.733C390.179 402.24 391.566 402.789 392.589 403.767C393.611 404.745 394.186 406.071 394.186 407.454C394.186 408.837 393.611 410.163 392.589 411.141C391.566 412.119 390.179 412.668 388.733 412.668Z" fill="#E6E6E6"/>
<path d="M511.293 292.742H248.226C245.244 292.739 242.386 291.605 240.278 289.589C238.17 287.573 236.984 284.839 236.981 281.988V201.169C236.984 198.318 238.17 195.584 240.278 193.568C242.386 191.552 245.244 190.418 248.226 190.415H511.293C514.275 190.418 517.133 191.552 519.241 193.568C521.349 195.584 522.535 198.318 522.538 201.169V281.988C522.535 284.839 521.349 287.573 519.241 289.589C517.133 291.605 514.275 292.739 511.293 292.742Z" fill="white"/>
<path d="M280.531 271.382C274.367 271.382 268.342 269.634 263.218 266.359C258.093 263.085 254.099 258.43 251.74 252.984C249.381 247.538 248.764 241.546 249.966 235.765C251.169 229.984 254.137 224.673 258.495 220.505C262.853 216.337 268.406 213.499 274.451 212.349C280.496 211.199 286.762 211.789 292.457 214.045C298.151 216.301 303.018 220.121 306.442 225.022C309.867 229.923 311.694 235.685 311.694 241.579C311.685 249.481 308.399 257.056 302.556 262.643C296.714 268.23 288.793 271.373 280.531 271.382ZM280.531 213.08C274.637 213.08 268.876 214.751 263.975 217.883C259.074 221.014 255.255 225.465 252.999 230.673C250.744 235.881 250.153 241.611 251.303 247.139C252.453 252.667 255.291 257.746 259.459 261.731C263.627 265.717 268.937 268.431 274.717 269.531C280.498 270.63 286.49 270.066 291.935 267.909C297.38 265.752 302.035 262.099 305.309 257.413C308.584 252.726 310.331 247.216 310.331 241.579C310.322 234.023 307.18 226.779 301.593 221.437C296.006 216.094 288.432 213.088 280.531 213.08Z" fill="#3F3D56"/>
<path d="M501.848 266.175H341.818C340.817 266.176 339.825 265.988 338.9 265.622C337.975 265.257 337.134 264.72 336.425 264.043C335.717 263.366 335.155 262.563 334.771 261.678C334.388 260.793 334.191 259.845 334.191 258.887C334.191 257.93 334.388 256.982 334.771 256.097C335.155 255.212 335.717 254.409 336.425 253.732C337.134 253.055 337.975 252.518 338.9 252.152C339.825 251.787 340.817 251.599 341.818 251.6H501.848C502.849 251.599 503.841 251.787 504.767 252.152C505.692 252.518 506.533 253.055 507.241 253.732C507.95 254.409 508.512 255.212 508.895 256.097C509.278 256.982 509.476 257.93 509.476 258.887C509.476 259.845 509.278 260.793 508.895 261.678C508.512 262.563 507.95 263.366 507.241 264.043C506.533 264.72 505.692 265.257 504.767 265.622C503.841 265.988 502.849 266.176 501.848 266.175Z" fill="#3366CC"/>
<path d="M392.304 235.202H341.818C340.817 235.203 339.825 235.015 338.9 234.649C337.975 234.284 337.134 233.747 336.425 233.07C335.717 232.393 335.155 231.59 334.771 230.705C334.388 229.82 334.191 228.872 334.191 227.914C334.191 226.957 334.388 226.009 334.771 225.124C335.155 224.239 335.717 223.436 336.425 222.759C337.134 222.082 337.975 221.545 338.9 221.179C339.825 220.814 340.817 220.626 341.818 220.627H392.304C393.305 220.626 394.297 220.814 395.222 221.179C396.148 221.545 396.989 222.082 397.697 222.759C398.405 223.436 398.967 224.239 399.351 225.124C399.734 226.009 399.932 226.957 399.932 227.914C399.932 228.872 399.734 229.82 399.351 230.705C398.967 231.59 398.405 232.393 397.697 233.07C396.989 233.747 396.148 234.284 395.222 234.649C394.297 235.015 393.305 235.203 392.304 235.202Z" fill="#3366CC"/>
<path d="M511.293 292.742H248.226C245.244 292.739 242.386 291.605 240.278 289.589C238.17 287.573 236.984 284.839 236.981 281.988V201.169C236.984 198.318 238.17 195.584 240.278 193.568C242.386 191.552 245.244 190.418 248.226 190.415H511.293C514.275 190.418 517.133 191.552 519.241 193.568C521.349 195.584 522.535 198.318 522.538 201.169V281.988C522.535 284.839 521.349 287.573 519.241 289.589C517.133 291.605 514.275 292.739 511.293 292.742ZM248.226 191.067C245.425 191.07 242.74 192.135 240.76 194.029C238.779 195.923 237.665 198.491 237.662 201.169V281.988C237.665 284.667 238.779 287.234 240.76 289.128C242.74 291.022 245.425 292.088 248.226 292.091H511.293C514.094 292.088 516.779 291.022 518.759 289.128C520.74 287.234 521.854 284.667 521.857 281.988V201.169C521.854 198.491 520.74 195.923 518.759 194.029C516.779 192.135 514.094 191.07 511.293 191.067H248.226Z" fill="#3F3D56"/>
<path d="M279.982 256.083C287.003 256.083 292.695 250.639 292.695 243.924C292.695 237.21 287.003 231.766 279.982 231.766C272.96 231.766 267.268 237.21 267.268 243.924C267.268 250.639 272.96 256.083 279.982 256.083Z" fill="#2F2E41"/>
<path d="M270.056 237.369C272.111 235.404 272.527 232.617 270.986 231.143C269.445 229.669 266.531 230.068 264.476 232.032C262.422 233.997 262.006 236.784 263.546 238.258C265.087 239.731 268.002 239.333 270.056 237.369Z" fill="#2F2E41"/>
<path d="M293.232 233.508C294.088 231.591 292.616 229.153 289.944 228.061C287.272 226.97 284.412 227.639 283.556 229.555C282.7 231.471 284.172 233.91 286.844 235.001C289.516 236.093 292.376 235.424 293.232 233.508Z" fill="#2F2E41"/>
<path d="M280.385 257.145C286.344 257.145 291.174 252.525 291.174 246.826C291.174 241.128 286.344 236.508 280.385 236.508C274.426 236.508 269.595 241.128 269.595 246.826C269.595 252.525 274.426 257.145 280.385 257.145Z" fill="#FFB8B8"/>
<path d="M269.047 240.336C271.512 241.961 274.439 242.826 277.433 242.814C276.365 243.523 275.149 244.001 273.869 244.217C277.85 245.034 281.965 245.056 285.956 244.282C286.843 244.146 287.699 243.865 288.486 243.451C288.878 243.241 289.22 242.955 289.489 242.611C289.758 242.267 289.949 241.872 290.048 241.453C290.313 240.004 289.132 238.688 287.906 237.801C286.027 236.464 283.862 235.542 281.566 235.103C279.269 234.664 276.9 234.719 274.628 235.264C273.115 235.555 271.737 236.299 270.696 237.389C269.732 238.528 269.447 240.284 270.365 241.457L269.047 240.336Z" fill="#2F2E41"/>
<path d="M121.131 333.161C120.815 332.183 120.728 331.151 120.874 330.137C121.021 329.123 121.399 328.152 121.98 327.293C122.562 326.433 123.333 325.706 124.24 325.163C125.147 324.62 126.168 324.273 127.23 324.148L162.215 285.052L170.374 293.246L135.528 330.731C135.63 332.452 135.068 334.148 133.949 335.5C132.83 336.851 131.232 337.762 129.458 338.062C127.683 338.361 125.855 338.028 124.32 337.125C122.786 336.221 121.651 334.811 121.131 333.161Z" fill="#A0616A"/>
<path d="M150.834 291.157C150.798 290.737 150.858 290.315 151.008 289.918C151.159 289.522 151.397 289.162 151.707 288.862L162.515 278.381C163.845 276.639 165.843 275.472 168.071 275.136C170.299 274.801 172.575 275.325 174.4 276.592C176.225 277.86 177.45 279.768 177.805 281.898C178.161 284.029 177.619 286.207 176.297 287.955L169.111 301.026C168.906 301.399 168.619 301.726 168.27 301.983C167.921 302.241 167.518 302.423 167.089 302.518C166.66 302.614 166.214 302.619 165.782 302.535C165.35 302.45 164.943 302.278 164.587 302.029L152.081 293.289C151.725 293.04 151.43 292.721 151.214 292.353C150.999 291.985 150.869 291.577 150.834 291.157Z" fill="#3366CC"/>
<path d="M176.212 267.17C185.457 267.17 192.951 260.002 192.951 251.161C192.951 242.32 185.457 235.153 176.212 235.153C166.968 235.153 159.473 242.32 159.473 251.161C159.473 260.002 166.968 267.17 176.212 267.17Z" fill="#A0616A"/>
<path d="M167.111 322.796C166.778 322.559 166.5 322.26 166.293 321.916C166.086 321.573 165.955 321.192 165.908 320.798C164.75 311.547 163.066 302.363 160.863 293.287C159.887 289.209 160.493 284.931 162.568 281.247C164.642 277.564 168.045 274.726 172.143 273.262C176.241 271.797 180.755 271.805 184.847 273.284C188.939 274.764 192.331 277.613 194.391 281.304C200.974 293.119 201.477 309.341 201.388 315.767C201.378 316.453 201.116 317.113 200.648 317.634C200.181 318.154 199.537 318.501 198.83 318.613L169.46 323.341C169.289 323.369 169.115 323.383 168.942 323.383C168.281 323.382 167.638 323.176 167.111 322.796Z" fill="#2F2E41"/>
<path d="M230.519 270.673C230.435 271.025 230.381 271.382 230.356 271.742L201.08 287.894L193.964 283.977L186.377 293.474L198.27 301.581C199.231 302.236 200.388 302.575 201.567 302.547C202.747 302.52 203.885 302.127 204.812 301.428L235.001 278.652C236.363 279.134 237.847 279.208 239.254 278.864C240.662 278.521 241.927 277.775 242.88 276.727C243.834 275.679 244.432 274.378 244.594 272.998C244.755 271.617 244.474 270.222 243.786 268.998C243.099 267.774 242.038 266.779 240.745 266.146C239.452 265.513 237.988 265.271 236.548 265.453C235.107 265.635 233.759 266.231 232.682 267.164C231.605 268.097 230.851 269.321 230.519 270.673Z" fill="#A0616A"/>
<path d="M200.101 288.659L190.639 300.387C190.37 300.721 190.029 300.995 189.639 301.191C189.249 301.387 188.819 301.501 188.379 301.524C187.939 301.547 187.499 301.479 187.089 301.325C186.679 301.171 186.308 300.934 186.002 300.63L175.291 289.992C173.513 288.665 172.359 286.718 172.08 284.579C171.802 282.439 172.422 280.281 173.804 278.578C175.187 276.874 177.219 275.765 179.456 275.492C181.693 275.22 183.951 275.806 185.736 277.124L199.171 284.308C199.555 284.514 199.889 284.796 200.149 285.137C200.409 285.477 200.59 285.867 200.678 286.28C200.766 286.693 200.76 287.119 200.661 287.53C200.561 287.94 200.371 288.325 200.101 288.659Z" fill="#3366CC"/>
<path d="M214.851 466.954L223.206 466.954L225.173 436.233L214.85 436.134L214.851 466.954Z" fill="#A0616A"/>
<path d="M212.72 464.345L229.174 464.345H229.175C230.552 464.345 231.916 464.604 233.188 465.108C234.46 465.612 235.616 466.351 236.59 467.282C237.564 468.213 238.336 469.319 238.863 470.535C239.39 471.752 239.661 473.056 239.661 474.373V474.699L212.72 474.7L212.72 464.345Z" fill="#2F2E41"/>
<path d="M135.113 466.954L143.468 466.954L147.443 436.133L135.112 436.133L135.113 466.954Z" fill="#A0616A"/>
<path d="M132.982 464.345L149.436 464.345H149.437C150.814 464.345 152.178 464.604 153.45 465.108C154.722 465.612 155.878 466.351 156.852 467.282C157.826 468.213 158.598 469.319 159.125 470.535C159.652 471.752 159.923 473.056 159.923 474.373V474.699L132.982 474.7L132.982 464.345Z" fill="#2F2E41"/>
<path d="M144.219 450.947L133.849 449.654C133.416 449.6 133 449.458 132.629 449.238C132.257 449.017 131.94 448.723 131.697 448.376C131.454 448.029 131.292 447.636 131.221 447.223C131.149 446.811 131.171 446.389 131.285 445.985L146.41 374.902C147.914 368.002 148.954 361.016 149.525 353.988C149.967 348.27 151.717 340.184 157.548 334.138C159.919 331.657 162.133 329.041 164.176 326.306L168.754 320.244L199.254 315.603L199.275 315.964C200.592 339.142 206.887 361.811 217.768 382.56C222.662 391.892 225.471 402.096 226.016 412.523L227.745 444.754C227.766 445.163 227.698 445.571 227.546 445.953C227.393 446.335 227.158 446.682 226.857 446.972C226.557 447.264 226.195 447.491 225.796 447.64C225.397 447.788 224.97 447.854 224.543 447.834L214.63 447.403C213.958 447.373 213.315 447.132 212.8 446.719C212.284 446.306 211.925 445.742 211.777 445.115L203.5 409.802C203.426 409.487 203.283 409.191 203.081 408.932L177.108 375.813C176.923 375.577 176.674 375.393 176.388 375.282C176.102 375.171 175.79 375.135 175.485 375.181C175.179 375.226 174.893 375.349 174.655 375.538C174.418 375.727 174.239 375.974 174.137 376.252L147.51 449.007C147.298 449.581 146.905 450.077 146.386 450.429C145.867 450.781 145.247 450.97 144.611 450.972C144.48 450.972 144.349 450.964 144.219 450.947Z" fill="#2F2E41"/>
<path d="M157.702 240.051C159.032 236.196 160.014 232.239 160.636 228.224C160.832 225.887 160.206 223.371 158.426 221.758C155.094 218.74 149.434 220.178 145.951 223.034C140.916 227.163 138.405 233.507 137.456 239.785C136.507 246.062 136.924 252.446 136.696 258.784C136.467 265.123 135.519 271.641 132.14 277.099C128.761 282.556 122.49 286.746 115.876 286.281C113.206 286.143 110.671 285.116 108.71 283.377C107.748 282.502 107.019 281.418 106.585 280.218C106.151 279.017 106.024 277.735 106.215 276.478C102.834 282.267 104.548 290.113 109.591 294.664C114.633 299.215 122.39 300.502 129.019 298.559C135.648 296.616 141.104 291.743 144.363 285.891C147.622 280.038 148.816 273.277 148.643 266.648C148.51 261.558 147.606 256.426 148.505 251.407C149.405 246.388 152.689 241.292 157.868 240.11L157.702 240.051Z" fill="#2F2E41"/>
<path d="M180.962 246.649C181.845 249.47 185.223 251.21 188.261 250.732C191.3 250.255 193.798 247.862 194.721 245.053C195.556 242.184 195.214 239.119 193.766 236.482C192.968 234.902 191.852 233.488 190.481 232.32C189.111 231.153 187.514 230.256 185.78 229.68C184.037 229.127 182.181 228.984 180.367 229.261C178.554 229.538 176.837 230.228 175.361 231.272C175.203 230.638 174.872 230.056 174.402 229.585C173.931 229.115 173.338 228.772 172.683 228.594C171.364 228.254 169.972 228.274 168.664 228.65C164.896 229.678 161.63 231.949 159.448 235.062C157.294 238.165 155.869 241.678 155.271 245.359C154.243 250.878 154.622 256.91 157.864 261.581C161.105 266.253 167.737 269.011 173.117 266.784C173.452 265.144 172.658 263.492 171.738 262.071C170.819 260.65 169.729 259.265 169.376 257.629C169.023 255.992 169.7 253.99 171.355 253.455C172.768 252.998 174.273 253.738 175.761 253.827C176.606 253.878 177.45 253.715 178.209 253.356C178.967 252.996 179.614 252.452 180.083 251.778C180.552 251.104 180.827 250.324 180.882 249.516C180.936 248.708 180.767 247.9 180.393 247.174L180.962 246.649Z" fill="#2F2E41"/>
<path d="M626.318 475H0.681522C0.500771 475 0.327423 474.932 0.199613 474.809C0.0718025 474.687 0 474.521 0 474.349C0 474.176 0.0718025 474.01 0.199613 473.888C0.327423 473.765 0.500771 473.697 0.681522 473.697H626.318C626.499 473.697 626.673 473.765 626.8 473.888C626.928 474.01 627 474.176 627 474.349C627 474.521 626.928 474.687 626.8 474.809C626.673 474.932 626.499 475 626.318 475Z" fill="#CCCCCC"/>
</g>
<defs>
<clipPath id="clip0_463_718">
<rect width="627" height="475" fill="white"/>
</clipPath>
</defs>
</svg>
