<svg width="56" height="56" viewBox="0 0 56 56" fill="none" xmlns="http://www.w3.org/2000/svg">
<path d="M2.26758 34.1715C2.26758 31.5349 2.7763 28.9239 3.76476 26.488C4.75322 24.0519 6.20198 21.8385 8.0284 19.974C9.85481 18.1096 12.023 16.6306 14.4093 15.6215C16.7957 14.6126 19.3533 14.0932 21.9363 14.0932V34.1715H2.26758Z" fill="#3C8AFF"/>
<path d="M2.26758 34.1716C2.26758 36.8084 2.7763 39.4192 3.76476 41.8554C4.75322 44.2914 6.20198 46.5048 8.0284 48.3692C9.85481 50.2337 12.023 51.7126 14.4093 52.7217C16.7957 53.7307 19.3533 54.25 21.9363 54.25V34.1716H2.26758Z" fill="#A4A5A6"/>
<path d="M41.6049 34.1716C41.6049 36.8084 41.0965 39.4192 40.1082 41.8554C39.1197 44.2914 37.671 46.5048 35.8443 48.3692C34.0179 50.2337 31.8497 51.7126 29.4633 52.7217C27.0771 53.7307 24.5194 54.25 21.9365 54.25V34.1716H41.6049Z" fill="#E6E6FA"/>
<path d="M53.7323 16.8257C53.7323 25.1517 47.1202 31.9013 38.9642 31.9013H24.1963V16.8257C24.1963 8.49963 30.8082 1.75 38.9642 1.75C47.1202 1.75 53.7323 8.49963 53.7323 16.8257Z" fill="#0066FF"/>
</svg>
